<svg width="60" height="15" viewBox="0 0 60 15" fill="none" xmlns="http://www.w3.org/2000/svg">
<g clip-path="url(#clip0_1863_2472)">
<path d="M15 0H0V15H15V0Z" fill="#F4564A"/>
<path d="M10.5 11.64H4.44V10.44C4.92 9.95997 5.46 9.53997 6 9.11997C6.42 8.75997 6.78 8.45997 7.14 8.09997C7.92 7.37997 8.16001 6.83997 8.16001 6.23997C8.16001 5.75997 7.92001 5.33997 7.38001 5.33997C6.9 5.33997 6.42 5.69997 6.18 6.53997L4.38 5.99997C4.92 4.31997 6.12 3.71997 7.5 3.71997C9.06 3.71997 10.38 4.43997 10.38 6.17997C10.38 7.79997 8.88 8.93997 7.62 9.83997H10.44V11.64H10.5Z" fill="white"/>
<path d="M30 0H15V15H30V0Z" fill="#2B8AD8"/>
<path d="M22.4999 11.76C20.6999 11.76 19.3199 10.32 19.3199 7.73997C19.3199 5.39997 20.4599 3.71997 22.4999 3.71997C24.5399 3.71997 25.6799 5.45997 25.6799 7.73997C25.6799 10.2 24.4199 11.76 22.4999 11.76ZM22.4999 5.21997C21.5999 5.21997 21.4799 6.11997 21.4799 7.73997C21.4799 9.53997 21.6599 10.2 22.4999 10.2C23.3399 10.2 23.5199 9.53997 23.5199 7.73997C23.5199 6.11997 23.3999 5.21997 22.4999 5.21997Z" fill="white"/>
<path d="M45 0H30V15H45V0Z" fill="#F4564A"/>
<path d="M60 0H45V15H60V0Z" fill="#2B8AD8"/>
<path d="M10.5 11.64H4.44V10.44C4.92 9.95997 5.46 9.53997 6 9.11997C6.42 8.75997 6.78 8.45997 7.14 8.09997C7.92 7.37997 8.16001 6.83997 8.16001 6.23997C8.16001 5.75997 7.92001 5.33997 7.38001 5.33997C6.9 5.33997 6.42 5.69997 6.18 6.53997L4.38 5.99997C4.92 4.31997 6.12 3.71997 7.5 3.71997C9.06 3.71997 10.38 4.43997 10.38 6.17997C10.38 7.79997 8.88 8.93997 7.62 9.83997H10.44V11.64H10.5Z" fill="white"/>
<path d="M40.5 11.64H34.44V10.44C34.92 9.95997 35.46 9.53997 36 9.11997C36.42 8.75997 36.78 8.45997 37.14 8.09997C37.92 7.37997 38.16 6.83997 38.16 6.23997C38.16 5.75997 37.92 5.33997 37.38 5.33997C36.9 5.33997 36.42 5.69997 36.18 6.53997L34.38 5.99997C34.92 4.31997 36.12 3.71997 37.5 3.71997C39.06 3.71997 40.38 4.43997 40.38 6.17997C40.38 7.79997 38.88 8.93997 37.62 9.83997H40.44V11.64H40.5Z" fill="white"/>
<path d="M55.6101 9.97503H54.4412V11.6532H52.3353V9.97503H49.1179V8.44749L52.5205 3.85315H54.4412V8.43577H55.6101V9.97503ZM52.4044 8.43577V6.10989L50.68 8.43577H52.4044Z" fill="white"/>
</g>
<defs>
<clipPath id="clip0_1863_2472">
<rect width="60" height="15" fill="white"/>
</clipPath>
</defs>
</svg>
